<?xml version="1.0" encoding="UTF-8" standalone="yes"?>
<!-- Created with sK1/UniConvertor (http://sk1project.org/) -->
<svg xmlns="http://www.w3.org/2000/svg" xmlns:xlink="http://www.w3.org/1999/xlink"
  width="400pt" height="87pt" viewBox="0 0 400 87"
  fill-rule="evenodd">
<g>
<g>
<path style="stroke:none; fill:#000000" d="M 0 43.5L 0 87L 200 87L 400 87L 400 43.5L 400 0L 200 0L 0 0L 0 43.5zM 162 24.5L 171.5 34L 157.2 48.3L 143 62.5L 132.8 52.3L 122.5 42L 125.2 39.3C 128.2 36.3 130.2 36.9 128.1 40.2C 126.9 42.1 127.4 42.9 134.9 50.4L 143 58.5L 155 46.5L 167 34.5L 158.8 26.3L 150.5 18L 143.9 24.6C 139.4 29 137 30.8 136.5 30C 135.6 28.5 148.7 15 151 15C 151.8 15 156.8 19.3 162 24.5zM 308.5 22.3C 310.9 24.1 309.7 25.9 306.4 25.2C 303.6 24.7 302 26.2 302 29.2C 302 30.5 302.8 31 305 31C 308.9 31 309.1 33.7 305.3 34.2L 302.5 34.5L 302.2 48.2C 302 59.6 301.7 62 300.5 62C 299.2 62 299 59.7 299 48.4C 299 35.7 298.9 34.8 297 34.3C 295.9 34 295 33.1 295 32.4C 295 31.6 295.9 31 297 31C 298.6 31 299 30.3 299 27.6C 299 22.2 304.3 19.3 308.5 22.3zM 198.5 23C 203 24.7 200.9 26.5 194.9 26.2C 190.1 25.9 189.2 26.2 187 28.5C 185.1 30.5 184.5 32.4 184.2 37.4C 183.7 44.4 185.5 49.1 189.1 51.1C 191.2 52.2 196 52 199.1 50.6C 200.2 50.1 201 50.4 201.3 51.4C 202.2 53.6 198.7 55.2 193.1 55.3C 184.4 55.4 180 49.9 180 39.1C 180 35.7 180.6 31.4 181.4 29.5C 184 23.4 191.7 20.4 198.5 23zM 210 37.1C 210 51.6 210.1 52.2 212 51.7C 213 51.4 214.4 51.8 215.1 52.6C 216.2 54 216.2 54 211.6 55.4C 210.9 55.7 209.3 55.2 208.1 54.4C 206.1 53 206 52 206 37.4C 206 22.7 206.1 22 208 22C 209.9 22 210 22.7 210 37.1zM 289.8 24.3C 290.2 26.3 287.3 27.7 285.9 26.3C 284.5 24.9 286 21.8 287.9 22.2C 288.8 22.4 289.6 23.3 289.8 24.3zM 315.7 23.6C 316.5 25.7 314.4 27.8 312.9 26.3C 311.6 25 312.4 22 314 22C 314.6 22 315.3 22.7 315.7 23.6zM 365.2 38.5C 365.5 53.7 365.4 55 363.8 55C 362.8 55 362 54.3 362 53.5C 362 52.7 361.6 52 361 52C 360.5 52 360 52.4 360 52.9C 360 54.7 354.2 55.9 351 54.8C 347.1 53.5 345 49.4 345 42.9C 345 38.4 345.4 37.4 348.4 34.4C 351.3 31.5 352.5 31 356.4 31L 361 31L 361 26.5C 361 22.7 361.3 22 363 22C 364.8 22 364.9 22.9 365.2 38.5zM 134.5 34.1L 144.5 44.1L 141.7 46.6C 138.3 49.5 136.2 48.9 138.4 45.6C 139.8 43.4 139.5 43 131.9 35.4L 124 27.5L 112 39.5L 100 51.5L 108 59.5L 116 67.5L 122.5 61C 127.4 56.1 129.3 54.9 130.1 55.7C 131 56.6 129.6 58.6 124.5 63.9C 120.7 67.8 117 71 116.2 71C 114.5 71 96 53.2 96 51.6C 96 50.2 122.2 24 123.5 24C 124.1 24 129 28.5 134.5 34.1zM 38.7 27.6C 39.3 29.2 37.2 31.3 35.8 30.4C 35.4 30.1 35 29 35 27.9C 35 25.6 37.8 25.3 38.7 27.6zM 76 31.5L 76 37L 79.6 35.3C 82.8 33.7 83.4 33.7 85.8 35.1C 89.7 37.2 90.1 43.1 86.6 45.7L 84.2 47.5L 87.2 52.8L 90.2 58.2L 87.9 57.8C 86.3 57.6 84.7 56.1 83.2 53.2C 81.3 49.9 80.3 49 78.6 49.2C 76.9 49.4 76.4 50.3 76.2 53.7C 75.9 57.2 75.5 58 73.9 58C 72.1 58 72 57.2 72 42C 72 26.7 72.1 26 74 26C 75.8 26 76 26.7 76 31.5zM 19 40.5L 19 54L 25 54C 30.3 54 31 54.2 31 56C 31 57.8 30.3 58 23 58L 15 58L 15 42.5C 15 27.7 15.1 27 17 27C 18.9 27 19 27.7 19 40.5zM 235.3 32.2C 236.6 33.2 237 35.7 237.2 44.3C 237.5 53.9 237.3 55 235.8 55C 234.8 55 234 54.3 234 53.5C 234 52.7 233.6 52 233 52C 232.5 52 232 52.4 232 52.9C 232 54.7 226.2 55.9 223 54.8C 219.1 53.5 217 49.4 217 42.9C 217 38.4 217.4 37.4 220.4 34.4C 223.3 31.5 224.5 31 228.7 31C 231.4 31 234.4 31.6 235.3 32.2zM 257.4 31.6C 260.1 32.7 258 35.2 254.9 34.5C 247.4 32.8 245.3 38.2 252.5 40.7C 264.9 44.9 260.2 58.4 247.6 54.9C 243.6 53.8 242.8 53 243.9 51.1C 244.6 50.1 245.2 50.1 246.8 50.9C 249.8 52.5 253.5 52.3 255.1 50.4C 256.8 48.3 255.3 45.9 251.2 44.6C 244.2 42.2 241.9 37.1 246 33C 248 31 253.9 30.3 257.4 31.6zM 278.3 31.6C 278.6 31.9 278.6 32.8 278.3 33.6C 277.9 34.6 276.8 34.8 274.1 34.4C 267.6 33.4 265.6 39.1 271.9 40.5C 276.6 41.5 280 44.7 280 48.1C 280 51.5 276.9 55 273.8 55.1C 266.8 55.5 262.3 53.3 264.8 50.8C 265.7 49.9 266.3 49.9 267.2 50.8C 269.9 53.5 276 51.9 276 48.5C 276 46.7 275.1 45.9 271.8 44.8C 261.2 41.2 262.1 31 272.9 31C 275.5 31 277.9 31.3 278.3 31.6zM 290 43C 290 54.3 289.9 55 288 55C 286.1 55 286 54.3 286 43C 286 31.7 286.1 31 288 31C 289.9 31 290 31.7 290 43zM 316 43C 316 54.3 315.9 55 314 55C 312.1 55 312 54.3 312 43C 312 31.7 312.1 31 314 31C 315.9 31 316 31.7 316 43zM 339 33C 343.8 37.8 339.6 44.4 331.1 45.6C 325.5 46.3 325 47 328 50C 330.2 52.2 334.9 52.7 336.8 50.8C 338.2 49.4 340.6 51.2 339.6 52.9C 338.6 54.4 332.4 55.9 329.8 55.3C 321.5 53.3 319.3 40.5 326 33.8C 329.6 30.3 335.9 29.9 339 33zM 385.4 31.6C 388.1 32.7 386 35.2 382.9 34.5C 375.4 32.8 373.3 38.2 380.5 40.7C 392.9 44.9 388.2 58.4 375.6 54.9C 371.6 53.8 370.8 53 371.9 51.1C 372.6 50.1 373.2 50.1 374.8 50.9C 377.8 52.5 381.5 52.3 383.1 50.4C 384.8 48.3 383.3 45.9 379.2 44.6C 372.2 42.2 369.9 37.1 374 33C 376 31 381.9 30.3 385.4 31.6zM 62.5 36.5C 64.8 38.7 65 39.7 65 48.5C 65 57.3 64.9 58 63 58C 61.2 58 61 57.3 61 49.2C 61 44.4 60.6 39.9 60.1 39.2C 59.6 38.4 58 38 56.4 38.2C 52.4 38.6 50 43.6 50 51.7C 50 57.3 49.8 58 48 58C 46.1 58 46 57.3 46 46.5C 46 36.8 46.2 35 47.5 35C 48.4 35 49.3 35.7 49.6 36.5C 50.1 37.8 50.6 37.7 52.7 36C 56.1 33.3 59.6 33.5 62.5 36.5zM 39 46.5C 39 57.3 38.9 58 37 58C 35.1 58 35 57.3 35 46.5C 35 35.7 35.1 35 37 35C 38.9 35 39 35.7 39 46.5z"/>
<path style="stroke:none; fill:#000000" d="M 351.5 36.4C 349.6 38.3 349 39.9 349 43.2C 349 51.4 354.6 54.8 359 49.3C 360.7 47.1 361 45.5 360.8 40.6C 360.5 34.5 360.5 34.5 357.3 34.2C 354.9 34 353.4 34.5 351.5 36.4z"/>
<path style="stroke:none; fill:#000000" d="M 79.1 39.6C 75.8 42.3 74.9 46 77.5 46C 80 46 84.7 43.3 85.4 41.5C 86.2 39.2 86.2 39.2 84.1 38C 82.5 37.2 81.5 37.5 79.1 39.6z"/>
<path style="stroke:none; fill:#000000" d="M 223.5 36.4C 221.6 38.3 221 39.9 221 43.2C 221 51.4 226.6 54.8 231 49.3C 232.7 47.1 233 45.5 232.8 40.6C 232.5 34.5 232.5 34.5 229.3 34.2C 226.9 34 225.4 34.5 223.5 36.4z"/>
<path style="stroke:none; fill:#000000" d="M 330.2 34.6C 329.1 35.1 326 40.1 326 41.5C 326 42.6 333.7 42 335.4 40.7C 338.1 38.7 337.2 34.6 334 34.3C 332.6 34.2 330.9 34.4 330.2 34.6z"/>
</g>
</g>
</svg>